#!OML:ASF E:\Style3\Style3.ASF
:FULLY-SPECIFIED
:DEGREES
3655
root 1.22574 17.7587 0.250668 45.0089 94.8707 22.7631
lowerback -17.1036 -2.59028 -2.22797
upperback -13.7776 -1.94373 2.25637
thorax -5.09493 -0.196703 3.36686
lowerneck -12.1966 -3.16477 -3.03226
upperneck 24.6397 -4.70077 5.25814
head 10.0398 -1.67196 1.81901
rclavicle 2.66371e-014 -4.17448e-015
rhumerus -150.691 -144.22 -545.408
rradius 99.8981
rwrist -2.02422
rhand -28.971 36.0168
rfingers 7.12502
rthumb -2.32367 6.04968
lclavicle 2.66371e-014 -4.17448e-015
lhumerus -234.711 163.319 -128.105
lradius 41.8418
lwrist -5.24805
lhand -26.3981 7.04956
lfingers 7.12502
lthumb 0.161254 37.0292
rfemur -15.0465 11.1748 18.499
rtibia 8.82625
rfoot -16.3606 -24.761
rtoes -8.44539
lfemur -12.6246 -4.82216 -15.5933
ltibia 3.45281
lfoot -12.3449 11.3285
ltoes -12.6571
3656
root 1.22395 17.7612 0.24534 43.4917 94.7572 21.1205
lowerback -17.1189 -2.6263 -2.27722
upperback -13.7978 -1.98501 2.1993
thorax -5.10689 -0.215759 3.32828
lowerneck -12.1402 -3.07881 -2.8809
upperneck 24.468 -4.57628 5.11608
head 9.95353 -1.62332 1.75702
rclavicle -3.15571e-015 -1.78906e-015
rhumerus -151.751 -143.413 -545.044
rradius 101.416
rwrist -2.84837
rhand -29.0956 35.943
rfingers 7.12502
rthumb -2.44407 5.97724
lclavicle -3.15571e-015 -1.78906e-015
lhumerus -234.994 163.167 -128.319
lradius 41.4317
lwrist -5.61749
lhand -25.7258 7.76779
lfingers 7.12502
lthumb 0.810575 37.746
rfemur -15.2697 11.1538 18.2509
rtibia 8.99202
rfoot -16.5003 -24.7617
rtoes -8.2479
lfemur -12.5582 -4.8078 -15.6925
ltibia 3.08836
lfoot -12.1524 11.3262
ltoes -12.9065
3657
root 1.22333 17.7619 0.242869 43.1686 94.6648 20.7551
lowerback -17.0432 -2.63574 -2.27959
upperback -13.7796 -2.00572 2.18549
thorax -5.12413 -0.229601 3.31366
lowerneck -12.2717 -3.00821 -2.75947
upperneck 24.4107 -4.47575 4.99645
head 9.94756 -1.58111 1.70432
rclavicle -2.49723e-014 1.68967e-014
rhumerus -152.792 -142.547 -544.758
rradius 102.978
rwrist -3.62659
rhand -29.4419 35.7781
rfingers 7.12502
rthumb -2.77843 5.81649
lclavicle -2.49723e-014 1.68967e-014
lhumerus -235.291 162.928 -128.524
lradius 41.1417
lwrist -5.86209
lhand -24.5171 8.53299
lfingers 7.12502
lthumb 1.97796 38.5036
rfemur -15.3693 11.2042 18.1384
rtibia 9.08695
rfoot -16.5524 -24.733
rtoes -8.27908
lfemur -12.4721 -4.74137 -15.7179
ltibia 2.84756
lfoot -12.0283 11.3371
ltoes -13.1785
3658
root 1.22318 17.7625 0.243088 43.668 94.6736 21.2841
lowerback -16.9245 -2.66619 -2.2521
upperback -13.7323 -2.06139 2.24838
thorax -5.12692 -0.262097 3.36037
lowerneck -12.3162 -2.9231 -2.71425
upperneck 24.2488 -4.35291 4.9441
head 9.89008 -1.53185 1.69081
rclavicle -5.29264e-015 -9.74045e-015
rhumerus -153.684 -141.656 -544.523
rradius 104.499
rwrist -4.34382
rhand -29.5239 35.4604
rfingers 7.12502
rthumb -2.85766 5.49977
lclavicle -5.29264e-015 -9.74045e-015
lhumerus -235.589 162.655 -128.624
lradius 40.8883
lwrist -5.72365
lhand -24.043 8.4414
lfingers 7.12502
lthumb 2.43587 38.4072
rfemur -15.3633 11.2416 18.192
rtibia 9.09758
rfoot -16.4402 -24.8472
rtoes -8.72611
lfemur -12.4142 -4.71151 -15.6548
ltibia 2.80361
lfoot -12.0405 11.2695
ltoes -12.5984
3659
root 1.22171 17.7616 0.243505 44.3749 94.6601 21.9863
lowerback -16.8261 -2.6699 -2.19878
upperback -13.7231 -2.07933 2.26915
thorax -5.16717 -0.275912 3.35243
lowerneck -12.2124 -2.84102 -2.67676
upperneck 24.0124 -4.25944 5.01187
head 9.78226 -1.48558 1.71795
rclavicle -4.96962e-015 1.0635e-014
rhumerus -154.678 -140.779 -544.227
rradius 105.975
rwrist -5.20968
rhand -29.3091 34.9804
rfingers 7.12502
rthumb -2.65022 5.01711
lclavicle -4.96962e-015 1.0635e-014
lhumerus -235.87 162.586 -128.675
lradius 40.6956
lwrist -5.45896
lhand -23.9603 8.33143
lfingers 7.12502
lthumb 2.5157 38.2963
rfemur -15.3617 11.303 18.2287
rtibia 9.04108
rfoot -16.3451 -24.9178
rtoes -8.66469
lfemur -12.4802 -4.67104 -15.654
ltibia 2.93122
lfoot -12.0645 11.2728
ltoes -12.5066
